<?xml version="1.0" encoding="UTF-8"?>
<svg width="53px" height="65px" viewBox="0 0 53 65" version="1.1" xmlns="http://www.w3.org/2000/svg" xmlns:xlink="http://www.w3.org/1999/xlink">
    <!-- Generator: Sketch 51.1 (57501) - http://www.bohemiancoding.com/sketch -->
    <title>Group 52 Copy</title>
    <desc>Created with Sketch.</desc>
    <defs></defs>
    <g id="Page-1" stroke="none" stroke-width="1" fill="none" fill-rule="evenodd">
        <g id="Group-52-Copy">
            <circle id="Oval-10" fill="#FFFFFF" cx="17.974112" cy="23.974112" r="2.97411198"></circle>
            <circle id="Oval-10-Copy-3" fill="#FFFFFF" cx="17.974112" cy="32.8964479" r="2.97411198"></circle>
            <circle id="Oval-10-Copy" fill="#FFFFFF" cx="26.7399157" cy="23.974112" r="2.97411198"></circle>
            <circle id="Oval-10-Copy-4" fill="#FFFFFF" cx="26.7399157" cy="32.8964479" r="2.97411198"></circle>
            <circle id="Oval-10-Copy-2" fill="#FFFFFF" cx="35.5057194" cy="23.974112" r="2.97411198"></circle>
            <circle id="Oval-10-Copy-5" fill="#FFFFFF" cx="35.5057194" cy="32.8964479" r="2.97411198"></circle>
            <circle id="Oval-10-Copy-6" fill="#FFFFFF" cx="35.5057194" cy="41.6622517" r="2.97411198"></circle>
            <rect id="Rectangle-29" fill="#FFFFFF" x="15" y="38.6881397" width="14.8705599" height="5.94822396" rx="2.97411198"></rect>
            <path d="M6.74618229,1.77590318 C6.44217469,1.70339505 6.1307167,1.66676621 5.81818182,1.66676621 C3.60904282,1.66676621 1.81818182,3.45762721 1.81818182,5.66676621 L1.81818182,59.9741337 C1.81818182,60.2866686 1.85481066,60.5981266 1.92731879,60.9021342 C2.4398393,63.0509985 4.59731798,64.3775173 6.74618229,63.8649967 L48.7461823,53.8476768 C50.5473199,53.4180917 51.8181818,51.8084725 51.8181818,49.9568137 L51.8181818,15.6840862 C51.8181818,13.8324274 50.5473199,12.2228082 48.7461823,11.7932231 L6.74618229,1.77590318 Z" id="Mask-Copy-8" stroke="#FFFFFF" stroke-width="2"></path>
        </g>
    </g>
</svg>